<?xml version="1.0" standalone="no"?>
<!DOCTYPE svg PUBLIC "-//W3C//DTD SVG 20010904//EN"
 "http://www.w3.org/TR/2001/REC-SVG-20010904/DTD/svg10.dtd">
<svg version="1.0" xmlns="http://www.w3.org/2000/svg"
 width="431.000000pt" height="431.000000pt" viewBox="0 0 431.000000 431.000000"
 preserveAspectRatio="xMidYMid meet">
<metadata>
Created by potrace 1.14, written by Peter Selinger 2001-2017
</metadata>
<g transform="translate(0.000000,431.000000) scale(0.100000,-0.100000)"
fill="#000000" stroke="none">
<path d="M1660 3843 c-79 -13 -107 -27 -151 -75 l-46 -50 -59 18 c-32 9 -68
18 -79 18 -42 3 -165 -46 -165 -66 0 -5 -7 -8 -15 -8 -8 0 -17 -11 -21 -25 -3
-14 -10 -25 -15 -25 -5 0 -8 -3 -7 -7 6 -21 -25 -51 -57 -57 -22 -4 -52 -22
-75 -45 -24 -23 -44 -35 -51 -30 -17 10 -86 1 -121 -17 -69 -36 -127 -119
-126 -181 0 -15 0 -47 -1 -70 l-1 -42 -72 -22 c-40 -12 -84 -29 -98 -38 -64
-41 -116 -113 -127 -176 -3 -16 -6 -31 -8 -33 -1 -1 4 -31 11 -65 18 -86 19
-83 -30 -102 -48 -19 -116 -73 -116 -93 0 -6 -4 -12 -9 -12 -8 0 -14 -16 -28
-70 -5 -20 -3 -152 2 -181 6 -27 -12 -79 -27 -79 -15 0 -64 -53 -83 -90 -10
-19 -20 -63 -23 -97 -4 -57 -2 -68 24 -111 28 -44 34 -82 13 -82 -5 0 -9 -7
-9 -15 0 -8 -4 -15 -9 -15 -9 0 -17 -16 -29 -60 -13 -43 -4 -138 16 -183 l21
-47 -28 -33 c-52 -59 -70 -159 -47 -253 12 -46 26 -70 63 -109 30 -31 35 -68
16 -115 -27 -70 -23 -154 12 -219 16 -29 44 -65 62 -81 18 -16 33 -35 33 -42
0 -7 11 -26 25 -41 21 -21 27 -40 30 -92 3 -36 11 -81 19 -100 21 -50 135
-160 176 -171 3 0 12 -4 20 -7 8 -3 35 -8 59 -11 24 -2 53 -13 65 -24 20 -19
34 -25 88 -39 39 -10 111 -4 154 12 40 15 46 15 105 -6 92 -31 127 -29 187 8
l51 32 68 -29 c76 -32 116 -33 204 -3 49 17 62 17 105 6 57 -15 123 -16 178
-4 33 8 46 6 95 -20 84 -43 157 -44 234 -3 15 8 36 17 47 19 10 2 43 11 73 21
34 10 62 14 73 9 11 -5 22 -7 27 -7 4 1 7 -3 7 -10 0 -6 3 -8 6 -5 4 4 19 0
33 -8 75 -41 121 -37 238 22 48 24 54 25 70 11 22 -19 114 -54 128 -49 6 2 55
5 110 7 55 2 118 5 140 7 22 2 76 8 120 11 105 10 135 20 172 59 39 41 58 76
87 157 19 55 30 70 67 94 52 35 84 69 103 111 16 34 21 173 7 194 -8 12 18 72
39 91 31 29 41 117 23 201 -7 32 -6 57 2 85 7 23 8 50 4 62 -5 13 -3 31 5 47
8 15 12 43 9 63 -10 84 -11 228 0 240 28 35 -9 198 -51 221 -19 10 -21 29 -25
166 -3 107 -12 134 -68 206 -16 20 -26 38 -24 41 2 2 7 42 10 89 8 131 -28
221 -111 278 -17 12 -37 33 -44 46 -7 14 -18 25 -24 25 -7 0 -11 26 -12 68 -1
118 -52 201 -140 229 -57 18 -64 30 -64 117 -1 82 -44 186 -77 186 -7 0 -13 4
-13 9 0 15 -64 32 -109 29 -51 -3 -64 10 -85 85 -23 81 -109 164 -189 184 -53
13 -130 12 -171 -2 -40 -14 -47 -14 -75 2 -17 10 -33 25 -36 34 -7 22 -81 89
-98 89 -7 0 -17 3 -21 8 -4 4 -12 8 -17 8 -5 1 -10 2 -11 3 -10 8 -62 14 -115
14 -54 0 -70 -4 -120 -36 l-58 -36 -20 22 c-46 50 -138 74 -225 60z"/>
</g>
</svg>
